<svg xmlns="http://www.w3.org/2000/svg" viewBox="0 0 32 32" width="28" height="28" fill="white"><path d="M16 2C8.268 2 2 8.268 2 16c0 2.478.675 4.797 1.849 6.785L2 30l7.438-1.82A13.94 13.94 0 0 0 16 30c7.732 0 14-6.268 14-14S23.732 2 16 2zm0 25.5a11.44 11.44 0 0 1-5.842-1.6l-.418-.248-4.41 1.08 1.112-4.3-.272-.44A11.46 11.46 0 0 1 4.5 16C4.5 9.649 9.649 4.5 16 4.5S27.5 9.649 27.5 16 22.351 27.5 16 27.5zm6.29-8.61c-.344-.172-2.036-1.004-2.352-1.118-.317-.115-.547-.172-.778.172-.23.344-.893 1.118-1.094 1.348-.2.23-.403.258-.747.086-.344-.172-1.452-.535-2.766-1.707-1.022-.912-1.713-2.038-1.913-2.382-.2-.344-.021-.53.15-.7.155-.155.344-.403.517-.604.172-.2.23-.344.344-.574.115-.23.057-.43-.029-.603-.086-.172-.778-1.876-1.066-2.568-.28-.673-.566-.582-.778-.593l-.663-.011c-.23 0-.603.086-.919.43s-1.207 1.18-1.207 2.876 1.236 3.337 1.408 3.567c.172.23 2.432 3.712 5.892 5.206.824.355 1.467.568 1.969.727.827.263 1.58.226 2.175.137.663-.099 2.036-.832 2.323-1.635.287-.804.287-1.493.2-1.636-.086-.143-.317-.23-.66-.402z"/></svg>
